<?xml version="1.0" encoding="UTF-8"?>
<svg xmlns="http://www.w3.org/2000/svg" xmlns:xlink="http://www.w3.org/1999/xlink" viewBox="0 0 24 24" width="24px" height="24px">
<g id="surface27209090">
<path style=" stroke:none;fill-rule:nonzero;fill:rgb(100%,100%,100%);fill-opacity:1;" d="M 6 2 C 4.347656 2 3 3.347656 3 5 C 3 6.300781 3.839844 7.402344 5 7.816406 L 5 15 C 5 17.75 7.25 20 10 20 L 11 20 L 11 21.023438 C 11 21.511719 11.589844 21.757812 11.933594 21.410156 L 13.757812 19.589844 C 14.082031 19.265625 14.082031 18.734375 13.757812 18.40625 L 11.933594 16.585938 C 11.589844 16.242188 11 16.488281 11 16.972656 L 11 18 L 10 18 C 8.332031 18 7 16.667969 7 15 L 7 7.816406 C 8.160156 7.402344 9 6.300781 9 5 C 9 3.347656 7.652344 2 6 2 Z M 12.355469 2.433594 C 12.253906 2.453125 12.152344 2.5 12.066406 2.589844 L 10.242188 4.40625 C 9.917969 4.734375 9.917969 5.265625 10.242188 5.589844 L 12.066406 7.410156 C 12.410156 7.757812 13 7.511719 13 7.023438 L 13 6 L 14 6 C 15.667969 6 17 7.332031 17 9 L 17 16.183594 C 15.839844 16.597656 15 17.699219 15 19 C 15 20.652344 16.347656 22 18 22 C 19.652344 22 21 20.652344 21 19 C 21 17.699219 20.160156 16.597656 19 16.183594 L 19 9 C 19 6.25 16.75 4 14 4 L 13 4 L 13 2.976562 C 13 2.609375 12.667969 2.378906 12.359375 2.433594 Z M 12.355469 2.433594 "/>
</g>
</svg>
