<?xml version="1.0" encoding="UTF-8"?>
<svg xmlns="http://www.w3.org/2000/svg" xmlns:xlink="http://www.w3.org/1999/xlink" viewBox="0 0 24 24" width="24px" height="24px">
<g id="surface27189650">
<path style=" stroke:none;fill-rule:nonzero;fill:rgb(100%,100%,100%);fill-opacity:1;" d="M 5 2 C 4.449219 2 4 2.449219 4 3 L 4.003906 6.382812 C 4.003906 6.761719 4.21875 7.109375 4.554688 7.277344 L 11.554688 10.777344 C 11.695312 10.847656 11.847656 10.882812 11.996094 10.882812 C 12 10.882812 12.003906 10.882812 12.003906 10.882812 C 12.15625 10.882812 12.308594 10.847656 12.449219 10.777344 L 19.449219 7.277344 C 19.789062 7.109375 20.003906 6.761719 20.003906 6.382812 L 20 3 C 20 2.445312 19.554688 2 19 2 Z M 11.996094 10.882812 C 11.808594 10.882812 11.621094 10.980469 11.523438 11.171875 L 9.949219 14.253906 L 6.464844 14.742188 C 6.019531 14.804688 5.84375 15.351562 6.171875 15.660156 L 8.679688 18.019531 L 8.082031 21.371094 C 8.003906 21.804688 8.457031 22.140625 8.851562 21.941406 L 12 20.34375 L 15.148438 21.941406 C 15.539062 22.140625 15.992188 21.804688 15.914062 21.371094 L 15.320312 18.019531 L 17.828125 15.660156 C 18.152344 15.351562 17.976562 14.804688 17.535156 14.742188 L 14.050781 14.253906 L 12.472656 11.171875 C 12.375 10.980469 12.1875 10.882812 12 10.882812 Z M 10 4 L 14 4 L 14 7.765625 L 12.003906 8.765625 L 10 7.761719 Z M 10 4 "/>
</g>
</svg>
