<svg width="242" height="138" viewBox="0 0 242 138" fill="none" xmlns="http://www.w3.org/2000/svg">
<path d="M23.2741 1.09091V36.5881C23.2492 41.4851 21.0617 44.0703 17.0844 44.0703C13.3309 44.0703 10.8948 41.7337 10.8202 37.6818H0.106445C0.0567295 47.8487 7.31525 52.696 16.5376 52.696C26.8536 52.696 33.8884 46.4567 33.9133 36.5881V1.09091H23.2741ZM51.5873 52L55.3657 40.3913H73.7357L77.5141 52H89.0482L71.4985 1.09091H57.6278L40.0532 52H51.5873ZM58.1001 31.9893L64.3643 12.7244H64.762L71.0262 31.9893H58.1001ZM95.1757 1.09091V52H105.616V18.7401H106.039L119.213 51.7514H126.323L139.497 18.8643H139.92V52H150.36V1.09091H137.086L123.066 35.2955H122.47L108.45 1.09091H95.1757ZM159.228 52H193.632V43.1257H169.992V30.9702H191.767V22.0959H169.992V9.9652H193.532V1.09091H159.228V52ZM229.707 15.7322H240.023C239.874 6.65909 232.416 0.394884 221.081 0.394884C209.92 0.394884 201.742 6.55966 201.791 15.8068C201.767 23.3139 207.061 27.6143 215.662 29.6776L221.206 31.0696C226.749 32.4119 229.831 34.0028 229.856 37.4332C229.831 41.1619 226.301 43.6974 220.833 43.6974C215.24 43.6974 211.213 41.1122 210.865 36.0163H200.449C200.723 47.0284 208.603 52.7209 220.957 52.7209C233.386 52.7209 240.694 46.7798 240.719 37.4581C240.694 28.9815 234.306 24.4822 225.456 22.4936L220.882 21.3999C216.458 20.3807 212.754 18.7401 212.828 15.0859C212.828 11.8047 215.737 9.39346 221.007 9.39346C226.152 9.39346 229.309 11.7301 229.707 15.7322ZM47.9852 103.914C46.5683 92.1562 37.6692 85.3949 25.8865 85.3949C12.4384 85.3949 2.17202 94.8906 2.17202 111.545C2.17202 128.151 12.2643 137.696 25.8865 137.696C38.9369 137.696 46.8169 129.021 47.9852 119.649L37.0974 119.599C36.0783 125.043 31.8027 128.175 26.0605 128.175C18.3297 128.175 13.0847 122.433 13.0847 111.545C13.0847 100.956 18.2551 94.9155 26.1351 94.9155C32.0264 94.9155 36.2771 98.321 37.0974 103.914H47.9852ZM58.5036 137H91.0924V128.126H69.2671V86.0909H58.5036V137ZM101.02 137H135.424V128.126H111.784V115.97H133.559V107.096H111.784V94.9652H135.324V86.0909H101.02V137ZM155.457 137L159.235 125.391H177.605L181.383 137H192.918L175.368 86.0909H161.497L143.923 137H155.457ZM161.969 116.989L168.234 97.7244H168.631L174.896 116.989H161.969ZM201.845 137H212.609V118.953H220.464L230.109 137H241.991L231.177 117.213C236.969 114.727 240.176 109.681 240.176 102.721C240.176 92.6037 233.489 86.0909 221.93 86.0909H201.845V137ZM212.609 110.303V94.8906H219.867C226.082 94.8906 229.089 97.6499 229.089 102.721C229.089 107.767 226.082 110.303 219.917 110.303H212.609Z" fill="black"/>
</svg>
