<?xml version="1.0" encoding="UTF-8"?><svg xmlns="http://www.w3.org/2000/svg" viewBox="0 0 833.21 146.41"><defs><style>.d{fill:#050046;}</style></defs><g id="a"/><g id="b"><g id="c"><g><g><path class="d" d="M237.08,105.93c2.44-3.77,3.68-7.89,3.68-12.25,0-5.13-1.26-9.3-3.74-12.39-2.5-3.12-5.49-5.56-8.9-7.25-3.44-1.71-7.9-3.42-13.27-5.07-3.35-1.11-5.98-2.04-7.82-2.76-1.87-.73-3.46-1.71-4.74-2.9-1.31-1.23-1.97-2.69-1.97-4.33,0-1.4,.46-2.74,1.37-3.96,.9-1.21,2.25-2.2,4.04-2.95,1.76-.74,3.88-1.11,6.3-1.11,3.38,0,6.6,.66,9.56,1.95,2.81,1.23,5.11,2.66,6.84,4.26l10.6-10.89c-1.57-1.77-3.64-3.47-6.14-5.05-2.62-1.65-5.87-3.07-9.66-4.22-3.79-1.15-7.89-1.74-12.17-1.74-5.88,0-11.1,1.08-15.53,3.22-4.42,2.13-7.81,5.01-10.1,8.56-2.28,3.54-3.44,7.44-3.44,11.59,0,5.02,1.23,9.17,3.67,12.31,2.44,3.17,5.44,5.64,8.9,7.33,3.47,1.71,7.91,3.41,13.19,5.07,3.22,.99,5.86,1.9,7.82,2.68,1.98,.79,3.6,1.8,4.82,2.99,1.25,1.23,1.89,2.69,1.89,4.33,0,2.77-1.16,5.07-3.46,6.86-2.27,1.76-5.48,2.66-9.54,2.66s-7.77-1.11-11.38-3.3c-3.46-2.1-6.3-4.47-8.46-7.05l-10.74,11.04c1.8,2.23,4.2,4.52,7.15,6.81,3.04,2.36,6.7,4.34,10.87,5.88,4.17,1.54,8.72,2.32,13.53,2.32,6.09,0,11-1.17,15.64-3.47,4.63-2.3,8.76-5.38,11.2-9.15Z"/><path class="d" d="M267.8,105.68c1.27,2.07,3.16,4.09,5.61,6,2.45,1.92,5.45,3.53,8.92,4.79,3.47,1.26,7.28,1.9,11.34,1.9,6.29,0,12.24-1.81,17.68-5.37,5.45-3.57,9.89-8.55,13.21-14.82,3.31-6.27,5-13.46,5-21.38s-1.68-14.94-5-21.21c-3.32-6.26-7.76-11.25-13.21-14.82-5.44-3.56-11.39-5.37-17.68-5.37-4.05,0-7.9,.67-11.42,1.98-3.52,1.32-6.55,2.96-9.01,4.87-2.44,1.91-4.33,3.93-5.61,6l-.1,.16h-.68v-11.35h-17.68v109.32h17.85v-40.88h.69l.1,.16Zm2.18-41.38c1.97-3.71,4.68-6.64,8.08-8.72,3.39-2.08,7.17-3.14,11.22-3.14s7.82,1.06,11.22,3.14c3.39,2.09,6.11,5.02,8.08,8.72,1.97,3.7,2.96,7.91,2.96,12.51s-1,8.97-2.96,12.68c-1.97,3.71-4.69,6.64-8.08,8.72-3.39,2.08-7.17,3.14-11.22,3.14s-7.83-1.06-11.22-3.14c-3.39-2.08-6.11-5.01-8.08-8.72-1.97-3.7-2.96-7.97-2.96-12.68s1-8.81,2.96-12.51Z"/><path class="d" d="M384.4,105.68l.1-.15h.68v11.18h16.55v-50.41c0-5.81-1.38-11.15-4.1-15.86-2.72-4.71-6.61-8.45-11.56-11.14-4.96-2.69-10.73-4.05-17.14-4.05-4.7,0-9.06,.75-12.96,2.23-3.9,1.48-7.37,3.37-10.31,5.63-2.85,2.19-5.42,4.64-7.63,7.31l10.58,10.55c2.76-3.01,5.71-5.47,8.77-7.31,3.18-1.91,6.9-2.89,11.06-2.89,3.07,0,5.83,.66,8.2,1.96,2.37,1.31,4.24,3.09,5.57,5.3,1.33,2.21,2,4.6,2,7.1v.54l-26.26,4.63c-7.69,1.43-13.72,4.34-17.93,8.67-4.19,4.31-6.32,9.82-6.32,16.38,0,4.04,1.1,7.88,3.28,11.43,2.18,3.55,5.25,6.4,9.13,8.48,3.89,2.08,8.4,3.13,13.4,3.13,3.83,0,7.46-.64,10.76-1.9,3.31-1.26,6.2-2.9,8.6-4.87,2.4-1.97,4.26-3.97,5.54-5.93Zm-10.42-4.96c-3.18,1.97-6.68,2.97-10.41,2.97-2.53,0-4.77-.46-6.64-1.37-1.89-.91-3.36-2.19-4.36-3.8-1-1.6-1.51-3.4-1.51-5.35,0-2.53,1.05-4.8,3.11-6.75,2.04-1.93,4.96-3.3,8.69-4.09l21.36-3.95v2.77c0,4.15-.92,8-2.72,11.42-1.81,3.43-4.33,6.17-7.51,8.14Z"/><path class="d" d="M443.06,56.67c3.18-2.03,6.74-3.06,10.57-3.06,1.21,0,2.4,.09,3.54,.25,.98,.14,1.92,.35,2.78,.62v-19.07h-3.56c-3.41,0-6.7,.61-9.79,1.81-3.09,1.21-5.77,2.76-7.94,4.62-2.19,1.86-3.88,3.8-5.05,5.76l-.1,.16h-.85v-10.68h-17.68V116.71h17.85v-39.23c0-4.59,.91-8.74,2.72-12.34,1.81-3.6,4.33-6.45,7.51-8.48Z"/><polygon class="d" points="522.07 116.71 542.38 116.71 510.42 69.44 510.6 69.24 539.81 37.09 518.3 37.09 486.47 72.85 486.47 .53 468.63 .53 468.63 116.71 486.47 116.71 486.47 95.38 498.87 81.78 522.07 116.71"/><rect class="d" x="548.66" y=".53" width="17.85" height="116.18"/><path class="d" d="M637,40.79c-6.2-3.68-13.14-5.54-20.62-5.54s-14.58,1.87-20.78,5.54c-6.2,3.68-11.16,8.75-14.74,15.07-3.58,6.32-5.4,13.37-5.4,20.95s1.82,14.8,5.4,21.12c3.58,6.32,8.54,11.39,14.74,15.07,6.19,3.68,13.19,5.55,20.78,5.55s14.42-1.87,20.62-5.54c6.2-3.68,11.16-8.75,14.74-15.07,3.58-6.32,5.4-13.42,5.4-21.12s-1.82-14.63-5.4-20.95c-3.58-6.32-8.54-11.39-14.74-15.07Zm-.67,48.78c-1.97,3.77-4.74,6.73-8.25,8.81-3.5,2.08-7.44,3.13-11.7,3.13s-8.37-1.05-11.86-3.13c-3.5-2.08-6.28-5.05-8.25-8.81-1.97-3.76-2.96-8.05-2.96-12.76s1-8.83,2.96-12.59c1.97-3.77,4.74-6.73,8.25-8.81,3.5-2.08,7.49-3.14,11.86-3.14s8.2,1.06,11.7,3.14c3.5,2.08,6.28,5.05,8.25,8.81,1.97,3.76,2.96,8,2.96,12.59s-1,9-2.96,12.76Z"/><path class="d" d="M724.46,40.79c-6.2-3.68-13.14-5.54-20.62-5.54s-14.58,1.87-20.78,5.54c-6.2,3.68-11.16,8.75-14.74,15.07-3.58,6.32-5.4,13.37-5.4,20.95s1.82,14.8,5.4,21.12c3.58,6.32,8.54,11.39,14.74,15.07,6.19,3.68,13.19,5.55,20.78,5.55s14.42-1.87,20.62-5.54c6.2-3.68,11.16-8.75,14.74-15.07,3.58-6.32,5.4-13.42,5.4-21.12s-1.82-14.63-5.4-20.95c-3.58-6.32-8.54-11.39-14.74-15.07Zm-.67,48.78c-1.97,3.77-4.74,6.73-8.25,8.81-3.5,2.08-7.44,3.13-11.7,3.13s-8.37-1.05-11.86-3.13c-3.5-2.08-6.28-5.05-8.25-8.81-1.97-3.76-2.96-8.05-2.96-12.76s1-8.83,2.96-12.59c1.97-3.77,4.74-6.73,8.25-8.81,3.5-2.08,7.49-3.14,11.86-3.14s8.2,1.06,11.7,3.14c3.5,2.08,6.28,5.05,8.25,8.81,1.97,3.76,2.96,8,2.96,12.59s-1,9-2.96,12.76Z"/><path class="d" d="M771.46,105.68c1.27,2.07,3.16,4.09,5.61,6,2.45,1.92,5.45,3.53,8.92,4.79,3.47,1.26,7.28,1.9,11.34,1.9,6.29,0,12.24-1.81,17.68-5.37,5.45-3.57,9.89-8.55,13.21-14.82,3.31-6.27,5-13.46,5-21.38s-1.68-14.94-5-21.21c-3.32-6.26-7.76-11.25-13.21-14.82-5.44-3.56-11.39-5.37-17.68-5.37-4.05,0-7.9,.67-11.42,1.98-3.52,1.32-6.55,2.96-9.01,4.87-2.44,1.91-4.33,3.93-5.61,6l-.1,.16h-.68v-11.35h-17.68v109.32h17.85v-40.88h.69l.1,.16Zm2.18-41.38c1.97-3.71,4.68-6.64,8.08-8.72,3.39-2.08,7.17-3.14,11.22-3.14s7.82,1.06,11.22,3.14c3.39,2.09,6.11,5.02,8.08,8.72,1.97,3.7,2.96,7.91,2.96,12.51s-1,8.97-2.96,12.68c-1.97,3.71-4.69,6.64-8.08,8.72-3.39,2.08-7.17,3.14-11.22,3.14s-7.83-1.06-11.22-3.14c-3.39-2.08-6.11-5.01-8.08-8.72-1.97-3.7-2.96-7.97-2.96-12.68s1-8.81,2.96-12.51Z"/></g><g><path class="d" d="M20.31,78.83c-11.2,0-20.31,9.11-20.31,20.31s9.11,20.31,20.31,20.31,20.31-9.11,20.31-20.31-9.11-20.31-20.31-20.31Z"/><path class="d" d="M86.31,42.34c-2.22-.79-4.51-1.19-6.83-1.19-3.01,0-5.93,.66-8.69,1.97-4.9,2.33-8.6,6.42-10.42,11.53l-13.1,36.76c-3.76,10.55,1.77,22.19,12.31,25.95,5.11,1.82,10.62,1.54,15.52-.78,4.9-2.33,8.6-6.42,10.42-11.53l13.1-36.76c1.82-5.11,1.54-10.62-.78-15.52-2.33-4.9-6.42-8.6-11.53-10.42Z"/><path class="d" d="M146.08,20.31c0-11.2-9.11-20.31-20.31-20.31s-20.31,9.11-20.31,20.31V96.98l.02,.07,.05,.4c-.05,.69-.07,1.21-.07,1.69,0,11.2,9.11,20.31,20.31,20.31s20.31-9.11,20.31-20.31c0-.48-.02-.99-.07-1.6l-.07-.85h.14V20.31Z"/></g></g></g></g></svg>