<?xml version="1.0" encoding="UTF-8"?>
<svg xmlns="http://www.w3.org/2000/svg" xmlns:xlink="http://www.w3.org/1999/xlink" viewBox="0 0 24 24" width="24px" height="24px">
<g id="surface27207919">
<path style=" stroke:none;fill-rule:nonzero;fill:rgb(100%,100%,100%);fill-opacity:1;" d="M 9 2 C 7.355469 2 6 3.355469 6 5 C 6 5.351562 6.074219 5.683594 6.1875 6 L 4.125 6 C 3.058594 6 2.089844 6.777344 2.007812 7.839844 C 1.941406 8.644531 2.363281 9.351562 3 9.722656 L 3 19 C 3 20.101562 3.898438 21 5 21 L 11 21 L 11 11 C 11 10.449219 11.449219 10 12 10 C 12.550781 10 13 10.449219 13 11 L 13 21 L 19 21 C 20.101562 21 21 20.101562 21 19 L 21 9.722656 C 21.636719 9.351562 22.058594 8.644531 21.996094 7.839844 C 21.910156 6.777344 20.941406 6 19.875 6 L 17.8125 6 C 17.925781 5.683594 18 5.351562 18 5 C 18 3.355469 16.644531 2 15 2 C 14.230469 2 13.535156 2.304688 13 2.785156 L 13 2.765625 L 12 3.765625 L 11 2.765625 L 11 2.785156 C 10.464844 2.304688 9.769531 2 9 2 Z M 9 4 C 9.5625 4 10 4.4375 10 5 C 10 5.5625 9.5625 6 9 6 C 8.4375 6 8 5.5625 8 5 C 8 4.4375 8.4375 4 9 4 Z M 15 4 C 15.5625 4 16 4.4375 16 5 C 16 5.5625 15.5625 6 15 6 C 14.4375 6 14 5.5625 14 5 C 14 4.4375 14.4375 4 15 4 Z M 15 4 "/>
</g>
</svg>
