<?xml version="1.0" encoding="UTF-8"?>
<svg xmlns="http://www.w3.org/2000/svg" xmlns:xlink="http://www.w3.org/1999/xlink" viewBox="0 0 24 24" width="24px" height="24px">
<g id="surface27229449">
<path style=" stroke:none;fill-rule:nonzero;fill:rgb(100%,100%,100%);fill-opacity:1;" d="M 5 3 C 3.894531 3 3 3.894531 3 5 L 3 19 C 3 20.105469 3.894531 21 5 21 L 12.222656 21 C 12.304688 21 12.382812 20.988281 12.457031 20.972656 C 12.972656 20.851562 13.300781 20.324219 13.183594 19.773438 C 13.183594 19.765625 13.179688 19.761719 13.179688 19.753906 C 13.085938 19.308594 12.675781 19 12.21875 19 L 5 19 L 5 9 L 19 9 L 19 10.007812 C 19 10.558594 19.441406 11 19.988281 11 L 20.007812 11 C 20.558594 11 21 10.558594 21 10.007812 L 21 5 C 21 3.894531 20.105469 3 19 3 Z M 6 5 C 6.550781 5 7 5.449219 7 6 C 7 6.550781 6.550781 7 6 7 C 5.449219 7 5 6.550781 5 6 C 5 5.449219 5.449219 5 6 5 Z M 9 5 C 9.550781 5 10 5.449219 10 6 C 10 6.550781 9.550781 7 9 7 C 8.449219 7 8 6.550781 8 6 C 8 5.585938 8.253906 5.230469 8.609375 5.078125 C 8.730469 5.027344 8.863281 5 9 5 Z M 12.5 5 L 18.5 5 C 18.777344 5 19 5.222656 19 5.5 L 19 6.5 C 19 6.777344 18.777344 7 18.5 7 L 12.5 7 C 12.429688 7 12.363281 6.984375 12.304688 6.960938 C 12.125 6.886719 12 6.707031 12 6.5 L 12 5.5 C 12 5.222656 12.222656 5 12.5 5 Z M 19.5 13 C 19.375 13 19.25 13.027344 19.136719 13.082031 L 15.535156 14.792969 C 15.210938 14.945312 15 15.289062 15 15.671875 L 15 17.59375 C 15 21.773438 18.21875 23.726562 19.5 24 C 20.78125 23.726562 24 21.773438 24 17.59375 L 24 15.671875 C 24 15.289062 23.789062 14.945312 23.464844 14.792969 L 19.867188 13.082031 C 19.75 13.027344 19.625 13 19.5 13 Z M 19.5 13 "/>
</g>
</svg>
